<mxfile host="www.draw.io" modified="2020-02-12T22:56:22.520Z" agent="Mozilla/5.0 (Windows NT 10.0; Win64; x64; rv:68.0) Gecko/20100101 Firefox/68.0" etag="if61CaVdPc328VjAQ8Y8" version="12.6.8" type="github">
  <diagram id="xyCS8CYWkKggY9GssYL-" name="Page-1">
    <mxGraphModel dx="1422" dy="911" grid="1" gridSize="10" guides="1" tooltips="1" connect="1" arrows="1" fold="1" page="1" pageScale="1" pageWidth="1100" pageHeight="850" math="0" shadow="0">
      <root>
        <mxCell id="0"/>
        <mxCell id="1" parent="0"/>
        <mxCell id="tQtk81zd8FE1HplSLnOw-1" value="ACTOR" style="rounded=0;whiteSpace=wrap;html=1;" vertex="1" parent="1">
          <mxGeometry x="60" y="20" width="120" height="60" as="geometry"/>
        </mxCell>
        <mxCell id="tQtk81zd8FE1HplSLnOw-2" value="UI" style="rounded=0;whiteSpace=wrap;html=1;" vertex="1" parent="1">
          <mxGeometry x="250" y="20" width="120" height="60" as="geometry"/>
        </mxCell>
        <mxCell id="tQtk81zd8FE1HplSLnOw-3" value="Airline" style="rounded=0;whiteSpace=wrap;html=1;" vertex="1" parent="1">
          <mxGeometry x="450" y="20" width="120" height="60" as="geometry"/>
        </mxCell>
        <mxCell id="tQtk81zd8FE1HplSLnOw-4" value="EmployeeList" style="rounded=0;whiteSpace=wrap;html=1;" vertex="1" parent="1">
          <mxGeometry x="630" y="20" width="120" height="60" as="geometry"/>
        </mxCell>
        <mxCell id="tQtk81zd8FE1HplSLnOw-5" value="Employee" style="rounded=0;whiteSpace=wrap;html=1;" vertex="1" parent="1">
          <mxGeometry x="800" y="20" width="120" height="60" as="geometry"/>
        </mxCell>
        <mxCell id="tQtk81zd8FE1HplSLnOw-6" value="AssignedFlight" style="rounded=0;whiteSpace=wrap;html=1;" vertex="1" parent="1">
          <mxGeometry x="950" y="20" width="120" height="60" as="geometry"/>
        </mxCell>
        <mxCell id="tQtk81zd8FE1HplSLnOw-8" value="" style="endArrow=none;dashed=1;html=1;" edge="1" parent="1" source="tQtk81zd8FE1HplSLnOw-14">
          <mxGeometry width="50" height="50" relative="1" as="geometry">
            <mxPoint x="120" y="780" as="sourcePoint"/>
            <mxPoint x="120" y="80" as="targetPoint"/>
          </mxGeometry>
        </mxCell>
        <mxCell id="tQtk81zd8FE1HplSLnOw-9" value="" style="endArrow=none;dashed=1;html=1;" edge="1" parent="1" source="tQtk81zd8FE1HplSLnOw-16">
          <mxGeometry width="50" height="50" relative="1" as="geometry">
            <mxPoint x="310" y="770" as="sourcePoint"/>
            <mxPoint x="310" y="80" as="targetPoint"/>
          </mxGeometry>
        </mxCell>
        <mxCell id="tQtk81zd8FE1HplSLnOw-10" value="" style="endArrow=none;dashed=1;html=1;" edge="1" parent="1" source="tQtk81zd8FE1HplSLnOw-24">
          <mxGeometry width="50" height="50" relative="1" as="geometry">
            <mxPoint x="510" y="770" as="sourcePoint"/>
            <mxPoint x="510" y="80" as="targetPoint"/>
          </mxGeometry>
        </mxCell>
        <mxCell id="tQtk81zd8FE1HplSLnOw-11" value="" style="endArrow=none;dashed=1;html=1;" edge="1" parent="1" source="tQtk81zd8FE1HplSLnOw-28">
          <mxGeometry width="50" height="50" relative="1" as="geometry">
            <mxPoint x="690" y="760" as="sourcePoint"/>
            <mxPoint x="690" y="80" as="targetPoint"/>
          </mxGeometry>
        </mxCell>
        <mxCell id="tQtk81zd8FE1HplSLnOw-14" value="" style="rounded=0;whiteSpace=wrap;html=1;" vertex="1" parent="1">
          <mxGeometry x="110" y="90" width="20" height="670" as="geometry"/>
        </mxCell>
        <mxCell id="tQtk81zd8FE1HplSLnOw-15" value="" style="endArrow=none;dashed=1;html=1;" edge="1" parent="1" target="tQtk81zd8FE1HplSLnOw-14">
          <mxGeometry width="50" height="50" relative="1" as="geometry">
            <mxPoint x="120" y="780" as="sourcePoint"/>
            <mxPoint x="120" y="80" as="targetPoint"/>
          </mxGeometry>
        </mxCell>
        <mxCell id="tQtk81zd8FE1HplSLnOw-17" value="" style="endArrow=none;dashed=1;html=1;" edge="1" parent="1" target="tQtk81zd8FE1HplSLnOw-16">
          <mxGeometry width="50" height="50" relative="1" as="geometry">
            <mxPoint x="310" y="770" as="sourcePoint"/>
            <mxPoint x="310" y="80" as="targetPoint"/>
          </mxGeometry>
        </mxCell>
        <mxCell id="tQtk81zd8FE1HplSLnOw-18" value="" style="endArrow=classic;html=1;entryX=0;entryY=0.048;entryDx=0;entryDy=0;entryPerimeter=0;" edge="1" parent="1" target="tQtk81zd8FE1HplSLnOw-16">
          <mxGeometry width="50" height="50" relative="1" as="geometry">
            <mxPoint x="130" y="140" as="sourcePoint"/>
            <mxPoint x="180" y="90" as="targetPoint"/>
          </mxGeometry>
        </mxCell>
        <mxCell id="tQtk81zd8FE1HplSLnOw-19" value="&lt;div&gt;Request to see&lt;/div&gt;&lt;div&gt;Employee Schedule&lt;br&gt;&lt;/div&gt;" style="text;html=1;align=center;verticalAlign=middle;resizable=0;points=[];autosize=1;" vertex="1" parent="1">
          <mxGeometry x="143" y="121" width="130" height="30" as="geometry"/>
        </mxCell>
        <mxCell id="tQtk81zd8FE1HplSLnOw-20" value="" style="endArrow=classic;html=1;entryX=1.1;entryY=0.151;entryDx=0;entryDy=0;entryPerimeter=0;" edge="1" parent="1" target="tQtk81zd8FE1HplSLnOw-14">
          <mxGeometry width="50" height="50" relative="1" as="geometry">
            <mxPoint x="300" y="190" as="sourcePoint"/>
            <mxPoint x="350" y="140" as="targetPoint"/>
          </mxGeometry>
        </mxCell>
        <mxCell id="tQtk81zd8FE1HplSLnOw-21" value="Request Employee id" style="text;html=1;align=center;verticalAlign=middle;resizable=0;points=[];labelBackgroundColor=#ffffff;" vertex="1" connectable="0" parent="tQtk81zd8FE1HplSLnOw-20">
          <mxGeometry x="0.1788" y="3" relative="1" as="geometry">
            <mxPoint x="6.98" as="offset"/>
          </mxGeometry>
        </mxCell>
        <mxCell id="tQtk81zd8FE1HplSLnOw-22" value="Provide Employee id" style="endArrow=classic;html=1;entryX=0;entryY=0.206;entryDx=0;entryDy=0;entryPerimeter=0;dashed=1;" edge="1" parent="1" target="tQtk81zd8FE1HplSLnOw-16">
          <mxGeometry width="50" height="50" relative="1" as="geometry">
            <mxPoint x="130" y="240" as="sourcePoint"/>
            <mxPoint x="240" y="240" as="targetPoint"/>
          </mxGeometry>
        </mxCell>
        <mxCell id="tQtk81zd8FE1HplSLnOw-23" value="Request Employee (id)&#39;s schedule" style="endArrow=classic;html=1;" edge="1" parent="1">
          <mxGeometry x="0.0171" y="20" width="50" height="50" relative="1" as="geometry">
            <mxPoint x="320" y="260" as="sourcePoint"/>
            <mxPoint x="497" y="260" as="targetPoint"/>
            <mxPoint as="offset"/>
          </mxGeometry>
        </mxCell>
        <mxCell id="tQtk81zd8FE1HplSLnOw-24" value="" style="rounded=0;whiteSpace=wrap;html=1;" vertex="1" parent="1">
          <mxGeometry x="500" y="250" width="20" height="150" as="geometry"/>
        </mxCell>
        <mxCell id="tQtk81zd8FE1HplSLnOw-28" value="" style="rounded=0;whiteSpace=wrap;html=1;" vertex="1" parent="1">
          <mxGeometry x="680" y="270" width="20" height="40" as="geometry"/>
        </mxCell>
        <mxCell id="tQtk81zd8FE1HplSLnOw-30" value="" style="endArrow=classic;html=1;entryX=0;entryY=0;entryDx=0;entryDy=0;" edge="1" parent="1" target="tQtk81zd8FE1HplSLnOw-28">
          <mxGeometry width="50" height="50" relative="1" as="geometry">
            <mxPoint x="520" y="270" as="sourcePoint"/>
            <mxPoint x="570" y="220" as="targetPoint"/>
          </mxGeometry>
        </mxCell>
        <mxCell id="tQtk81zd8FE1HplSLnOw-31" value="Get employee (id)&#39;s object" style="text;html=1;align=center;verticalAlign=middle;resizable=0;points=[];labelBackgroundColor=#ffffff;" vertex="1" connectable="0" parent="tQtk81zd8FE1HplSLnOw-30">
          <mxGeometry x="-0.2" y="1" relative="1" as="geometry">
            <mxPoint x="16" y="-9" as="offset"/>
          </mxGeometry>
        </mxCell>
        <mxCell id="tQtk81zd8FE1HplSLnOw-32" value="" style="endArrow=classic;html=1;dashed=1;" edge="1" parent="1">
          <mxGeometry width="50" height="50" relative="1" as="geometry">
            <mxPoint x="680" y="310" as="sourcePoint"/>
            <mxPoint x="523" y="310" as="targetPoint"/>
          </mxGeometry>
        </mxCell>
        <mxCell id="tQtk81zd8FE1HplSLnOw-33" value="Return employee" style="text;html=1;align=center;verticalAlign=middle;resizable=0;points=[];labelBackgroundColor=#ffffff;" vertex="1" connectable="0" parent="tQtk81zd8FE1HplSLnOw-32">
          <mxGeometry x="0.4522" y="3" relative="1" as="geometry">
            <mxPoint x="34" y="-13" as="offset"/>
          </mxGeometry>
        </mxCell>
        <mxCell id="tQtk81zd8FE1HplSLnOw-34" value="" style="rounded=0;whiteSpace=wrap;html=1;" vertex="1" parent="1">
          <mxGeometry x="850" y="320" width="20" height="80" as="geometry"/>
        </mxCell>
        <mxCell id="tQtk81zd8FE1HplSLnOw-36" value="" style="endArrow=classic;html=1;" edge="1" parent="1">
          <mxGeometry width="50" height="50" relative="1" as="geometry">
            <mxPoint x="520" y="330" as="sourcePoint"/>
            <mxPoint x="849" y="329" as="targetPoint"/>
          </mxGeometry>
        </mxCell>
        <mxCell id="tQtk81zd8FE1HplSLnOw-37" value="Request iterator to all assigned flights" style="text;html=1;align=center;verticalAlign=middle;resizable=0;points=[];autosize=1;" vertex="1" parent="1">
          <mxGeometry x="600" y="330" width="220" height="20" as="geometry"/>
        </mxCell>
        <mxCell id="tQtk81zd8FE1HplSLnOw-42" value="Iterator to flight list" style="endArrow=classic;html=1;entryX=1;entryY=1;entryDx=0;entryDy=0;dashed=1;" edge="1" parent="1" target="tQtk81zd8FE1HplSLnOw-24">
          <mxGeometry width="50" height="50" relative="1" as="geometry">
            <mxPoint x="850" y="400" as="sourcePoint"/>
            <mxPoint x="900" y="350" as="targetPoint"/>
          </mxGeometry>
        </mxCell>
        <mxCell id="tQtk81zd8FE1HplSLnOw-44" value="" style="endArrow=classic;html=1;dashed=1;entryX=1.1;entryY=0.46;entryDx=0;entryDy=0;entryPerimeter=0;" edge="1" parent="1" target="tQtk81zd8FE1HplSLnOw-16">
          <mxGeometry width="50" height="50" relative="1" as="geometry">
            <mxPoint x="500" y="400" as="sourcePoint"/>
            <mxPoint x="550" y="350" as="targetPoint"/>
          </mxGeometry>
        </mxCell>
        <mxCell id="tQtk81zd8FE1HplSLnOw-45" value="Give iterator to all flights" style="text;html=1;align=center;verticalAlign=middle;resizable=0;points=[];labelBackgroundColor=#ffffff;" vertex="1" connectable="0" parent="tQtk81zd8FE1HplSLnOw-44">
          <mxGeometry x="0.3595" relative="1" as="geometry">
            <mxPoint x="31" as="offset"/>
          </mxGeometry>
        </mxCell>
        <mxCell id="tQtk81zd8FE1HplSLnOw-46" value="" style="rounded=0;whiteSpace=wrap;html=1;" vertex="1" parent="1">
          <mxGeometry x="230" y="430" width="810" height="180" as="geometry"/>
        </mxCell>
        <mxCell id="tQtk81zd8FE1HplSLnOw-47" value="loop" style="rounded=0;whiteSpace=wrap;html=1;" vertex="1" parent="1">
          <mxGeometry x="230" y="430" width="60" height="20" as="geometry"/>
        </mxCell>
        <mxCell id="tQtk81zd8FE1HplSLnOw-16" value="" style="rounded=0;whiteSpace=wrap;html=1;" vertex="1" parent="1">
          <mxGeometry x="300" y="110" width="20" height="630" as="geometry"/>
        </mxCell>
        <mxCell id="tQtk81zd8FE1HplSLnOw-27" value="" style="endArrow=none;dashed=1;html=1;" edge="1" parent="1" target="tQtk81zd8FE1HplSLnOw-24">
          <mxGeometry width="50" height="50" relative="1" as="geometry">
            <mxPoint x="510" y="770" as="sourcePoint"/>
            <mxPoint x="510" y="80" as="targetPoint"/>
          </mxGeometry>
        </mxCell>
        <mxCell id="tQtk81zd8FE1HplSLnOw-29" value="" style="endArrow=none;dashed=1;html=1;" edge="1" parent="1" target="tQtk81zd8FE1HplSLnOw-28">
          <mxGeometry width="50" height="50" relative="1" as="geometry">
            <mxPoint x="690" y="760" as="sourcePoint"/>
            <mxPoint x="690" y="80" as="targetPoint"/>
          </mxGeometry>
        </mxCell>
        <mxCell id="tQtk81zd8FE1HplSLnOw-12" value="" style="endArrow=none;dashed=1;html=1;" edge="1" parent="1">
          <mxGeometry width="50" height="50" relative="1" as="geometry">
            <mxPoint x="860" y="760" as="sourcePoint"/>
            <mxPoint x="860" y="80" as="targetPoint"/>
          </mxGeometry>
        </mxCell>
        <mxCell id="tQtk81zd8FE1HplSLnOw-49" value="&lt;div&gt;for all&lt;/div&gt;&lt;div&gt;flights&lt;br&gt;&lt;/div&gt;" style="text;html=1;align=center;verticalAlign=middle;resizable=0;points=[];autosize=1;" vertex="1" parent="1">
          <mxGeometry x="230" y="450" width="50" height="30" as="geometry"/>
        </mxCell>
        <mxCell id="tQtk81zd8FE1HplSLnOw-13" value="" style="endArrow=none;dashed=1;html=1;" edge="1" parent="1">
          <mxGeometry width="50" height="50" relative="1" as="geometry">
            <mxPoint x="1010" y="760" as="sourcePoint"/>
            <mxPoint x="1010" y="80" as="targetPoint"/>
          </mxGeometry>
        </mxCell>
        <mxCell id="tQtk81zd8FE1HplSLnOw-53" value="" style="rounded=0;whiteSpace=wrap;html=1;" vertex="1" parent="1">
          <mxGeometry x="1000" y="450" width="20" height="150" as="geometry"/>
        </mxCell>
        <mxCell id="tQtk81zd8FE1HplSLnOw-54" value="" style="endArrow=classic;html=1;dashed=1;entryX=1;entryY=0.75;entryDx=0;entryDy=0;" edge="1" parent="1" target="tQtk81zd8FE1HplSLnOw-16">
          <mxGeometry width="50" height="50" relative="1" as="geometry">
            <mxPoint x="999" y="583" as="sourcePoint"/>
            <mxPoint x="1050" y="550" as="targetPoint"/>
          </mxGeometry>
        </mxCell>
        <mxCell id="tQtk81zd8FE1HplSLnOw-57" value="flightTime" style="text;html=1;align=center;verticalAlign=middle;resizable=0;points=[];labelBackgroundColor=#ffffff;" vertex="1" connectable="0" parent="tQtk81zd8FE1HplSLnOw-54">
          <mxGeometry x="0.1517" y="1" relative="1" as="geometry">
            <mxPoint as="offset"/>
          </mxGeometry>
        </mxCell>
        <mxCell id="tQtk81zd8FE1HplSLnOw-55" value="" style="endArrow=classic;html=1;entryX=0;entryY=0.1;entryDx=0;entryDy=0;entryPerimeter=0;" edge="1" parent="1" target="tQtk81zd8FE1HplSLnOw-53">
          <mxGeometry width="50" height="50" relative="1" as="geometry">
            <mxPoint x="320" y="464.5" as="sourcePoint"/>
            <mxPoint x="590" y="464.5" as="targetPoint"/>
          </mxGeometry>
        </mxCell>
        <mxCell id="tQtk81zd8FE1HplSLnOw-56" value="getFlightTime()" style="text;html=1;align=center;verticalAlign=middle;resizable=0;points=[];labelBackgroundColor=#ffffff;" vertex="1" connectable="0" parent="tQtk81zd8FE1HplSLnOw-55">
          <mxGeometry x="-0.1029" y="-2" relative="1" as="geometry">
            <mxPoint as="offset"/>
          </mxGeometry>
        </mxCell>
        <mxCell id="tQtk81zd8FE1HplSLnOw-58" value="" style="endArrow=classic;html=1;entryX=1.15;entryY=0.806;entryDx=0;entryDy=0;entryPerimeter=0;dashed=1;" edge="1" parent="1" target="tQtk81zd8FE1HplSLnOw-14">
          <mxGeometry width="50" height="50" relative="1" as="geometry">
            <mxPoint x="300" y="630" as="sourcePoint"/>
            <mxPoint x="350" y="580" as="targetPoint"/>
          </mxGeometry>
        </mxCell>
        <mxCell id="tQtk81zd8FE1HplSLnOw-59" value="Print schedule" style="text;html=1;align=center;verticalAlign=middle;resizable=0;points=[];labelBackgroundColor=#ffffff;" vertex="1" connectable="0" parent="tQtk81zd8FE1HplSLnOw-58">
          <mxGeometry x="0.2335" relative="1" as="geometry">
            <mxPoint x="11" as="offset"/>
          </mxGeometry>
        </mxCell>
      </root>
    </mxGraphModel>
  </diagram>
</mxfile>
